<svg width="94" height="94" viewBox="0 0 94 94" fill="none" xmlns="http://www.w3.org/2000/svg">
<path d="M87.1457 12.8056C87.1449 11.7289 86.4305 10.9799 85.6387 10.809L85.2944 10.7708H8.70524C7.78935 10.7708 6.85493 11.5747 6.854 12.8056V72.6724C6.854 73.9044 7.78886 74.7111 8.70524 74.7111H30.9622C32.8076 74.7113 34.5784 75.3858 35.9651 76.5929V76.5968L46.9884 86.1972L58.1799 76.5662L58.7154 76.1454C60.0026 75.2212 61.5468 74.7114 63.1484 74.7111H85.2944L85.6387 74.6728C86.4312 74.5016 87.1457 73.7499 87.1457 72.6724V12.8056ZM63.6457 43.0833C63.6457 33.89 56.1932 26.4374 46.9998 26.4374C37.8066 26.4374 30.354 33.89 30.354 43.0833C30.354 52.2766 37.8066 59.7291 46.9998 59.7291C56.1932 59.7291 63.6457 52.2766 63.6457 43.0833ZM51.0772 47.1606C52.2243 46.0135 54.0838 46.0136 55.231 47.1606C56.3781 48.3077 56.3781 50.1672 55.231 51.3144C50.8271 55.7176 43.7744 55.8551 39.2048 51.7275L38.7687 51.3144L38.566 51.0925C37.6249 49.9389 37.6936 48.2361 38.7687 47.1606C39.8442 46.085 41.5469 46.0167 42.7007 46.9578L42.9225 47.1606L43.3624 47.5545C45.627 49.4014 48.9661 49.271 51.0772 47.1606ZM41.3735 34.179C43.1284 34.3579 44.4984 35.8421 44.4984 37.6443C44.4979 39.5661 42.9394 41.124 41.0177 41.1249C39.2153 41.1249 37.731 39.7553 37.5524 38L37.5333 37.6443L37.5524 37.2886C37.7302 35.5325 39.2148 34.1637 41.0177 34.1637L41.3735 34.179ZM53.3415 34.179C55.0964 34.3581 56.4664 35.8425 56.4664 37.6443C56.4659 39.5664 54.9047 41.1249 52.9819 41.1249C51.1801 41.1241 49.6989 39.7545 49.5204 38L49.5013 37.6443L49.5204 37.2886C49.6982 35.5333 51.1795 34.1645 52.9819 34.1637L53.3415 34.179ZM69.5207 43.0833C69.5207 55.5212 59.4378 65.6041 46.9998 65.6041C34.5619 65.6041 24.479 55.5213 24.479 43.0833C24.479 30.6453 34.5619 20.5624 46.9998 20.5624C59.4378 20.5624 69.5207 30.6454 69.5207 43.0833ZM93.0207 72.6724C93.0207 76.9346 89.6676 80.5844 85.2983 80.5861H63.1484C62.8497 80.5864 62.5489 80.6659 62.2764 80.8271L62.0125 81.0183L48.897 92.3093C47.9283 93.1432 46.5517 93.2427 45.4852 92.6115L45.0492 92.2978L32.1058 81.026C31.7695 80.7333 31.3645 80.5863 30.9622 80.5861H8.70524C4.33407 80.5861 0.979004 76.9349 0.979004 72.6724V12.8056C0.979961 8.54409 4.33465 4.89575 8.70524 4.89575H85.2944L86.1015 4.93783C90.0715 5.35348 93.0198 8.80966 93.0207 12.8056V72.6724Z" fill="white"/>
</svg>
